# xmcd
#
# Track frame offsets:
# 150
# 7789
# 22715
# 35421
# 50143
# 64878
# 79187
# 94165
# 109605
# 123319
# 139567
#
# Disc length: 1976 seconds
#
#
# Revision: 0
# Processed by: cddbd v1.5.1PL2 Copyright (c) Steve Scherf et al.
# Submitted via: FreeRIP 2.944 
#
DISCID=8107b60b
DTITLE=Honeytree - Evergreen
DYEAR=1975
DGENRE=Gospel
TTITLE0=Evergreen
TTITLE1=It's Only Right
TTITLE2=(Lovely Jesus) Here I Am
TTITLE3=Mary and Martha
TTITLE4=Ruth
TTITLE5=I Am Your Servant
TTITLE6=Rattle Me, Shake Me
TTITLE7=Searchlight
TTITLE8=Say You Told Me So
TTITLE9=Sometimes I Need You
TTITLE10=Lullaby in Jesus' Name
EXTD=
EXTT0=
EXTT1=
EXTT2=
EXTT3=
EXTT4=
EXTT5=
EXTT6=
EXTT7=
EXTT8=
EXTT9=
EXTT10=
PLAYORDER=
